<svg width="512" height="512" viewBox="0 0 512 512" fill="none" xmlns="http://www.w3.org/2000/svg">
<path d="M256 512C397.385 512 512 397.385 512 256C512 114.615 397.385 0 256 0C114.615 0 0 114.615 0 256C0 397.385 114.615 512 256 512Z" fill="url(#paint0_linear_1_2)"/>
<path d="M256 399.744L112.255 256L256 112.255L399.745 256L256 399.744Z" fill="url(#paint1_linear_1_2)"/>
<path d="M256 256L399.745 256L256 399.745L112.255 256L256 112.255L399.745 256" fill="url(#paint2_linear_1_2)"/>
<defs>
<linearGradient id="paint0_linear_1_2" x1="256" y1="0" x2="256" y2="512" gradientUnits="userSpaceOnUse">
<stop stop-color="#4B79A1"/>
<stop offset="1" stop-color="#283E51"/>
</linearGradient>
<linearGradient id="paint1_linear_1_2" x1="256" y1="112.255" x2="256" y2="399.744" gradientUnits="userSpaceOnUse">
<stop stop-color="#C33764"/>
<stop offset="1" stop-color="#1D2671"/>
</linearGradient>
<linearGradient id="paint2_linear_1_2" x1="256" y1="112.255" x2="256" y2="399.745" gradientUnits="userSpaceOnUse">
<stop stop-color="#2C5364"/>
<stop offset="1" stop-color="#203A43"/>
</linearGradient>
</defs>
</svg>
